<?xml version="1.0" encoding="UTF-8" standalone="no"?>
<svg
   xmlns:dc="http://purl.org/dc/elements/1.1/"
   xmlns:cc="http://creativecommons.org/ns#"
   xmlns:rdf="http://www.w3.org/1999/02/22-rdf-syntax-ns#"
   xmlns:svg="http://www.w3.org/2000/svg"
   xmlns="http://www.w3.org/2000/svg"
   xmlns:sodipodi="http://sodipodi.sourceforge.net/DTD/sodipodi-0.dtd"
   xmlns:inkscape="http://www.inkscape.org/namespaces/inkscape"
   width="128"
   height="128"
   viewBox="0 0 33.866666 33.866668"
   version="1.1"
   id="svg8"
   inkscape:version="1.0.2-2 (e86c870879, 2021-01-15)"
   sodipodi:docname="broccoli.svg"
   inkscape:export-filename="D:\GitHub\Broccoli\broccoli.png"
   inkscape:export-xdpi="96"
   inkscape:export-ydpi="96">
  <defs
     id="defs2" />
  <sodipodi:namedview
     id="base"
     pagecolor="#ffffff"
     bordercolor="#666666"
     borderopacity="1.0"
     inkscape:pageopacity="0.0"
     inkscape:pageshadow="2"
     inkscape:zoom="6.5517863"
     inkscape:cx="101.17454"
     inkscape:cy="89.459706"
     inkscape:document-units="mm"
     inkscape:current-layer="layer1"
     inkscape:document-rotation="0"
     showgrid="false"
     units="px"
     inkscape:window-width="2560"
     inkscape:window-height="1377"
     inkscape:window-x="-8"
     inkscape:window-y="-8"
     inkscape:window-maximized="1" />
  <metadata
     id="metadata5">
    <rdf:RDF>
      <cc:Work
         rdf:about="">
        <dc:format>image/svg+xml</dc:format>
        <dc:type
           rdf:resource="http://purl.org/dc/dcmitype/StillImage" />
        <dc:title />
      </cc:Work>
    </rdf:RDF>
  </metadata>
  <g
     inkscape:label="图层 1"
     inkscape:groupmode="layer"
     id="layer1">
    <circle
       style="fill:#88b2ad;stroke-width:0.772935;fill-opacity:1"
       id="path849"
       cx="16.867188"
       cy="16.961681"
       r="16.867186" />
    <path
       id="path847"
       style="fill:#ffffff;fill-opacity:1;stroke-width:0.0531215"
       sodipodi:type="inkscape:offset"
       inkscape:radius="0"
       inkscape:original="M 18.783203 0.4296875 C 18.116253 0.4296875 17.669714 0.60737308 17.167969 1.0742188 L 16.902344 1.3222656 L 16.582031 1.2695312 C 15.636407 1.1136206 14.400919 1.5002059 13.556641 2.2167969 C 13.257309 2.4708484 13.215858 2.4874071 12.898438 2.5019531 C 12.370939 2.5261544 11.795258 2.8838753 11.509766 3.3632812 L 11.435547 3.4863281 L 11.132812 3.3144531 C 9.9356669 2.6366416 8.5478799 3.5304222 8.4472656 5.0449219 L 8.421875 5.453125 L 7.7695312 5.4550781 C 7.0288158 5.457378 6.6853459 5.540466 6.1191406 5.8515625 C 4.9100124 6.5159017 4.0543754 7.9287402 3.9277344 9.4726562 C 3.9029 9.7755004 3.8801467 9.8526643 3.8242188 9.828125 C 3.6923518 9.770319 2.8634902 9.9111664 2.5136719 10.050781 C 2.0048239 10.253865 1.5979378 10.557408 1.1777344 11.044922 C 0.57922994 11.739303 0.28941639 12.419171 0.18554688 13.376953 C 0.070218095 14.440382 0.36681002 15.578155 0.96679688 16.382812 C 1.0556414 16.501964 1.1269531 16.615856 1.1269531 16.634766 C 1.1269531 16.653701 1.0488403 16.804068 0.953125 16.96875 C 0.68852226 17.423995 0.56765686 17.865581 0.54101562 18.478516 C 0.51288775 19.125547 0.58032428 19.501763 0.82226562 20.074219 C 1.144462 20.836563 1.8872988 21.523284 2.5957031 21.712891 C 2.9250675 21.801083 3.7157854 21.785487 4.0136719 21.685547 C 4.9272414 21.379015 5.6723516 20.516099 5.9277344 19.466797 L 6.0136719 19.115234 L 6.1699219 19.251953 C 6.5775674 19.607134 7.264748 19.824308 7.7988281 19.767578 C 8.9024775 19.650407 9.8181009 18.755827 10.078125 17.542969 C 10.111245 17.388488 10.144944 17.254791 10.152344 17.244141 C 10.159841 17.233571 10.307479 17.299948 10.480469 17.392578 C 11.358421 17.862664 12.452822 17.889168 13.384766 17.462891 C 14.32904 17.03097 15.141655 16.054915 15.466797 14.962891 C 15.591661 14.543529 15.718061 13.616373 15.675781 13.431641 C 15.655439 13.342778 15.710296 13.328671 16.181641 13.300781 C 16.738017 13.267831 17.103328 13.156358 17.519531 12.890625 L 17.746094 12.746094 L 18.021484 12.966797 C 18.418435 13.28359 18.851335 13.520891 19.353516 13.695312 C 19.738695 13.829087 19.873306 13.846156 20.486328 13.845703 C 21.043889 13.845277 21.260084 13.821046 21.576172 13.722656 C 21.994112 13.59254 22.049934 13.607138 22.052734 13.855469 C 22.054965 14.050358 22.191842 14.500591 22.357422 14.855469 C 22.55912 15.287752 22.84202 15.655317 23.214844 15.96875 L 23.507812 16.214844 L 23.517578 16.910156 C 23.527923 17.747004 23.612149 18.142975 23.931641 18.853516 C 24.110077 19.250355 24.249502 19.465613 24.560547 19.818359 C 25.155369 20.492925 25.75888 20.858295 26.546875 21.021484 C 27.644741 21.248837 28.837326 20.822378 29.650391 19.914062 C 30.328079 19.156986 30.571401 18.607586 30.779297 17.365234 L 30.800781 17.240234 L 31.085938 17.390625 C 31.612705 17.666375 32.365238 17.624021 32.943359 17.287109 C 33.245646 17.110945 33.622775 16.64639 33.785156 16.25 C 34.18088 15.284005 34.038865 14.299841 33.394531 13.542969 L 33.099609 13.197266 L 33.125 12.533203 C 33.145338 11.969469 33.131143 11.799434 33.039062 11.416016 C 32.892774 10.806905 32.683957 10.376149 32.304688 9.9082031 C 31.938983 9.4569884 31.485469 9.0984029 31.111328 8.9628906 L 30.849609 8.8671875 L 30.849609 8.3769531 C 30.849609 8.0929487 30.815561 7.7591051 30.769531 7.5820312 C 30.60025 6.9308688 30.138836 6.3364221 29.566406 6.0351562 C 29.383807 5.9390611 29.229909 5.8588287 29.224609 5.8554688 C 29.219429 5.8520423 29.183018 5.6668461 29.142578 5.4453125 C 28.94418 4.3583654 28.186196 3.456126 27.269531 3.2148438 C 26.746623 3.0772 26.039849 3.1719712 25.580078 3.4394531 C 25.410143 3.538335 25.402942 3.5365355 25.283203 3.4257812 C 25.056773 3.2163315 24.693328 3.0407542 24.345703 2.9726562 L 24.001953 2.90625 L 23.978516 2.6699219 C 23.918158 2.0582302 23.458075 1.3495476 22.927734 1.0527344 C 22.232493 0.66363487 21.537631 0.70580345 20.896484 1.1757812 L 20.65625 1.3515625 L 20.421875 1.1289062 C 19.890051 0.62269018 19.437965 0.4296875 18.783203 0.4296875 z M 17.785156 13.732422 C 17.630907 13.620409 17.327984 13.687759 17.175781 13.794922 C 16.925516 13.97113 16.987878 13.720346 16.5625 13.759766 L 16.166016 13.796875 L 16.109375 14.255859 C 15.981628 15.285055 15.380222 16.447281 14.810547 17.154297 L 14.617188 17.394531 L 14.710938 18.810547 C 14.740806 20.998564 14.811524 21.817799 15.169922 24.046875 C 15.201581 24.243775 15.201031 24.244365 15.011719 23.939453 C 13.295679 21.175521 12.843297 20.512999 11.990234 19.511719 C 11.660412 19.124592 11.201769 18.505199 10.845703 18.308594 L 10.365234 18.044922 L 10.294922 18.253906 C 10.16307 18.639179 9.8400135 19.162183 9.5390625 19.480469 C 9.3749095 19.654077 9.2191354 19.796875 9.1933594 19.796875 C 9.0955474 19.796875 9.1594987 19.906589 9.5546875 20.425781 C 11.668536 23.202923 13.562317 26.444502 15.140625 31.769531 C 15.385326 32.595118 15.187578 33.096485 15.267578 33.205078 C 15.412146 33.401338 15.785221 33.732847 16.212891 33.845703 C 16.675057 33.967656 18.199154 34.002334 18.697266 33.849609 C 19.521862 33.596787 20.091547 33.294885 20.298828 32.683594 C 21.40572 29.419254 22.944597 25.317474 24.921875 21.699219 C 25.124266 21.328861 25.167771 21.226857 25.181641 21.185547 C 25.196241 21.141935 25.278146 20.840302 25.191406 20.789062 C 24.813684 20.565935 24.128454 19.830794 23.894531 19.398438 C 23.847253 19.311055 23.720272 19.457503 23.175781 20.228516 C 22.500803 21.184305 21.817835 22.369295 21.195312 23.664062 L 20.873047 24.330078 L 20.896484 24.033203 C 21.082982 21.463972 21.844994 18.750937 23.025391 16.458984 L 23.119141 16.277344 L 22.970703 16.150391 C 22.500673 15.743749 22.053416 15.003643 21.876953 14.337891 C 21.827639 14.151804 21.764225 13.99933 21.734375 14 C 21.601105 14.004459 20.464602 16.33018 20.001953 17.544922 C 19.482019 18.910073 19.076806 20.374298 18.796875 21.90625 C 18.663885 22.634046 18.50164 23.788862 18.46875 24.244141 C 18.455839 24.422837 18.178316 22.965693 18.052734 22.060547 C 17.80099 20.245999 17.702671 18.263537 17.775391 16.451172 C 17.820578 15.324895 17.854009 14.29468 17.917969 13.96875 C 17.9359 13.877382 17.901839 13.816792 17.785156 13.732422 z M 18.921875 14.103516 C 18.912905 14.113765 18.759255 15.50436 18.548828 17.4375 L 18.210938 20.552734 L 18.181641 21.058594 C 18.220751 21.355173 18.251804 21.378042 18.271484 21.517578 C 18.316924 21.839875 18.415376 22.561293 18.621094 21.464844 C 18.890054 20.031314 19.218049 18.715924 19.621094 17.195312 L 19.853516 16.314453 L 20.238281 15.240234 L 20.253906 14.382812 L 19.964844 14.341797 C 19.806073 14.319148 19.509693 14.252709 19.306641 14.193359 C 19.103587 14.134029 18.930875 14.093146 18.921875 14.103516 z M 13.693359 17.648438 C 13.369043 17.822879 13.044065 18.060537 12.644531 18.123047 C 12.420937 18.158017 12.294456 18.472169 12.285156 18.480469 C 12.572749 19.233276 13.008751 19.907591 13.269531 20.267578 C 13.657419 20.803025 14.213902 22.086475 14.470703 22.529297 C 14.574788 22.708857 14.570674 22.121094 14.583984 22.121094 C 14.597414 22.121094 14.528659 21.296764 14.511719 21.148438 C 14.397609 20.150385 14.491875 20.708355 14.453125 19.845703 L 14.408203 18.849609 L 14.169922 18.255859 C 14.039118 17.928587 13.714169 17.676257 13.693359 17.648438 z M 23.054688 18.126953 C 22.979685 18.152909 22.215925 19.587857 21.9375 20.169922 C 21.806809 20.443136 21.77331 20.882822 21.71875 21.126953 C 21.602053 21.649071 21.568066 22.087097 21.572266 22.179688 C 22.414091 20.67279 22.212232 21.075144 22.626953 20.005859 C 22.696023 19.827774 23.35349 19.217147 23.375 19.039062 L 23.425781 18.6875 C 23.35624 18.510216 23.204652 18.527641 23.169922 18.378906 C 23.135184 18.230165 23.083098 18.117253 23.054688 18.126953 z "
       d="m 18.783203,0.4296875 c -0.66695,0 -1.113489,0.17768558 -1.615234,0.6445313 l -0.265625,0.2480468 -0.320313,-0.052734 c -0.945624,-0.1559106 -2.181112,0.2306747 -3.02539,0.9472657 -0.299332,0.2540515 -0.340783,0.2706102 -0.658203,0.2851562 -0.527499,0.024201 -1.10318,0.3819222 -1.388672,0.8613281 l -0.07422,0.1230469 -0.302735,-0.171875 C 9.9356669,2.6366416 8.5478799,3.5304222 8.4472656,5.0449219 L 8.421875,5.453125 7.7695312,5.4550781 C 7.0288158,5.457378 6.6853459,5.540466 6.1191406,5.8515625 4.9100124,6.5159017 4.0543754,7.9287402 3.9277344,9.4726562 3.9029,9.7755004 3.8801467,9.8526643 3.8242188,9.828125 3.6923518,9.770319 2.8634902,9.9111664 2.5136719,10.050781 c -0.508848,0.203084 -0.9157341,0.506627 -1.3359375,0.994141 -0.59850446,0.694381 -0.88831801,1.374249 -0.99218752,2.332031 -0.11532879,1.063429 0.18126314,2.201202 0.78125,3.005859 0.0888445,0.119152 0.16015622,0.233044 0.16015622,0.251954 0,0.01894 -0.078113,0.169302 -0.1738281,0.333984 -0.26460274,0.455245 -0.38546814,0.896831 -0.41210938,1.509766 -0.0281279,0.647031 0.0393087,1.023247 0.28125,1.595703 0.32219638,0.762344 1.06503318,1.449065 1.77343748,1.638672 0.3293644,0.08819 1.1200823,0.0726 1.4179688,-0.02734 0.9135695,-0.306532 1.6586797,-1.169448 1.9140625,-2.21875 l 0.085937,-0.351563 0.15625,0.136719 c 0.4076455,0.355181 1.0948261,0.572355 1.6289062,0.515625 1.1036494,-0.117171 2.0192728,-1.011751 2.2792969,-2.224609 0.03312,-0.154481 0.06682,-0.288178 0.07422,-0.298828 0.0075,-0.01057 0.155135,0.05581 0.328125,0.148437 0.877952,0.470086 1.972353,0.49659 2.904297,0.07031 0.944274,-0.431921 1.756889,-1.407976 2.082031,-2.5 0.124864,-0.419362 0.251264,-1.346518 0.208984,-1.53125 -0.02034,-0.08886 0.03451,-0.10297 0.50586,-0.13086 0.556376,-0.03295 0.921687,-0.144423 1.33789,-0.410156 l 0.226563,-0.144531 0.27539,0.220703 c 0.396951,0.316793 0.829851,0.554094 1.332032,0.728515 0.385179,0.133775 0.51979,0.150844 1.132812,0.150391 0.557561,-4.26e-4 0.773756,-0.02466 1.089844,-0.123047 0.41794,-0.130116 0.473762,-0.115518 0.476562,0.132813 0.0022,0.194889 0.139108,0.645122 0.304688,1 0.201698,0.432283 0.484598,0.799848 0.857422,1.113281 l 0.292968,0.246094 0.0098,0.695312 c 0.01035,0.836848 0.09457,1.232819 0.414063,1.94336 0.178436,0.396839 0.317861,0.612097 0.628906,0.964843 0.594822,0.674566 1.198333,1.039936 1.986328,1.203125 1.097866,0.227353 2.290451,-0.199106 3.103516,-1.107422 0.677688,-0.757076 0.92101,-1.306476 1.128906,-2.548828 l 0.02148,-0.125 0.285157,0.150391 c 0.526767,0.27575 1.2793,0.233396 1.857421,-0.103516 0.302287,-0.176164 0.679416,-0.640719 0.841797,-1.037109 0.395724,-0.965995 0.253709,-1.950159 -0.390625,-2.707031 L 33.099609,13.197266 33.125,12.533203 c 0.02034,-0.563734 0.0061,-0.733769 -0.08594,-1.117187 C 32.892774,10.806905 32.683957,10.376149 32.304688,9.9082031 31.938983,9.4569884 31.485469,9.0984029 31.111328,8.9628906 L 30.849609,8.8671875 V 8.3769531 c 0,-0.2840044 -0.03405,-0.617848 -0.08008,-0.7949219 C 30.60025,6.9308688 30.138836,6.3364221 29.566406,6.0351562 29.383807,5.9390611 29.229909,5.8588287 29.224609,5.8554688 29.219429,5.8520423 29.183018,5.6668461 29.142578,5.4453125 28.94418,4.3583654 28.186196,3.456126 27.269531,3.2148438 26.746623,3.0772 26.039849,3.1719712 25.580078,3.4394531 c -0.169935,0.098882 -0.177136,0.097082 -0.296875,-0.013672 -0.22643,-0.2094497 -0.589875,-0.385027 -0.9375,-0.453125 L 24.001953,2.90625 23.978516,2.6699219 C 23.918158,2.0582302 23.458075,1.3495476 22.927734,1.0527344 22.232493,0.66363487 21.537631,0.70580345 20.896484,1.1757812 L 20.65625,1.3515625 20.421875,1.1289062 C 19.890051,0.62269018 19.437965,0.4296875 18.783203,0.4296875 Z M 17.785156,13.732422 c -0.154249,-0.112013 -0.457172,-0.04466 -0.609375,0.0625 -0.250265,0.176208 -0.187903,-0.07458 -0.613281,-0.03516 l -0.396484,0.03711 -0.05664,0.458984 c -0.127747,1.029196 -0.729153,2.191422 -1.298828,2.898438 l -0.193359,0.240234 0.09375,1.416016 c 0.02987,2.188017 0.100586,3.007252 0.458984,5.236328 0.03166,0.1969 0.03111,0.19749 -0.158203,-0.107422 -1.71604,-2.763932 -2.168422,-3.426454 -3.021485,-4.427734 -0.329822,-0.387127 -0.788465,-1.00652 -1.144531,-1.203125 l -0.480469,-0.263672 -0.07031,0.208984 c -0.131852,0.385273 -0.4549085,0.908277 -0.7558595,1.226563 -0.164153,0.173608 -0.3199271,0.316406 -0.3457031,0.316406 -0.097812,0 -0.033861,0.109714 0.3613281,0.628906 2.1138485,2.777142 4.0076295,6.018721 5.5859375,11.34375 0.244701,0.825587 0.04695,1.326954 0.126953,1.435547 0.144568,0.19626 0.517643,0.527769 0.945313,0.640625 0.462166,0.121953 1.986263,0.156631 2.484375,0.0039 0.824596,-0.252822 1.394281,-0.554724 1.601562,-1.166015 1.106892,-3.26434 2.645769,-7.36612 4.623047,-10.984375 0.202391,-0.370358 0.245896,-0.472362 0.259766,-0.513672 0.0146,-0.04361 0.09651,-0.345245 0.0098,-0.396485 -0.377722,-0.223127 -1.062952,-0.958268 -1.296875,-1.390624 -0.04728,-0.08738 -0.174259,0.05907 -0.71875,0.830078 -0.674978,0.955789 -1.357946,2.140779 -1.980469,3.435546 l -0.322265,0.666016 0.02344,-0.296875 c 0.186498,-2.569231 0.94851,-5.282266 2.128907,-7.574219 l 0.09375,-0.18164 -0.148438,-0.126953 c -0.47003,-0.406642 -0.917287,-1.146748 -1.09375,-1.8125 C 21.827639,14.151804 21.764225,13.99933 21.734375,14 c -0.13327,0.0045 -1.269773,2.33018 -1.732422,3.544922 -0.519934,1.365151 -0.925147,2.829376 -1.205078,4.361328 -0.13299,0.727796 -0.295235,1.882612 -0.328125,2.337891 -0.01291,0.178696 -0.290434,-1.278448 -0.416016,-2.183594 -0.251744,-1.814548 -0.350063,-3.79701 -0.277343,-5.609375 0.04519,-1.126277 0.07862,-2.156492 0.142578,-2.482422 0.01793,-0.09137 -0.01613,-0.151958 -0.132813,-0.236328 z m 1.136719,0.371094 c -0.009,0.01025 -0.16262,1.400844 -0.373047,3.333984 l -0.33789,3.115234 -0.0293,0.50586 c 0.03911,0.296579 0.07016,0.319448 0.08984,0.458984 0.04544,0.322297 0.143892,1.043715 0.34961,-0.05273 0.26896,-1.43353 0.596955,-2.74892 1,-4.269532 l 0.232422,-0.880859 0.384765,-1.074219 0.01563,-0.857422 -0.289062,-0.04101 c -0.158771,-0.02265 -0.455151,-0.08909 -0.658203,-0.148438 -0.203054,-0.05933 -0.375766,-0.100213 -0.384766,-0.08984 z m -5.228516,3.544922 c -0.324316,0.174441 -0.649294,0.412099 -1.048828,0.474609 -0.223594,0.03497 -0.350075,0.349122 -0.359375,0.357422 0.287593,0.752807 0.723595,1.427122 0.984375,1.787109 0.387888,0.535447 0.944371,1.818897 1.201172,2.261719 0.104085,0.17956 0.09997,-0.408203 0.113281,-0.408203 0.01343,0 -0.05532,-0.82433 -0.07226,-0.972656 -0.11411,-0.998053 -0.01984,-0.440083 -0.05859,-1.302735 l -0.04492,-0.996094 -0.238281,-0.59375 c -0.130804,-0.327272 -0.455753,-0.579602 -0.476563,-0.607421 z m 9.361329,0.478515 c -0.075,0.02596 -0.838763,1.460904 -1.117188,2.042969 -0.130691,0.273214 -0.16419,0.7129 -0.21875,0.957031 -0.116697,0.522118 -0.150684,0.960144 -0.146484,1.052735 0.841825,-1.506898 0.639966,-1.104544 1.054687,-2.173829 0.06907,-0.178085 0.726537,-0.788712 0.748047,-0.966797 l 0.05078,-0.351562 c -0.06954,-0.177284 -0.221129,-0.159859 -0.255859,-0.308594 -0.03474,-0.148741 -0.08682,-0.261653 -0.115234,-0.251953 z" />
    <path
       id="path852"
       style="fill:#88b2ad;fill-opacity:1;stroke-width:0.618743"
       d="m 10.793865,9.6850855 a 2.2164345,2.0877897 38.353632 0 0 -0.26292,-0.09497 2.2164345,2.0877897 38.353632 0 0 -2.6118022,1.4315125 2.2164345,2.0877897 38.353632 0 0 0.6063464,2.068808 2.5554291,2.4424821 51.997016 0 1 -0.014605,-0.03542 2.5554291,2.4424821 51.997016 0 1 -0.023819,-0.06184 2.5554291,2.4424821 51.997016 0 1 -0.02219,-0.06228 2.5554291,2.4424821 51.997016 0 1 -0.021028,-0.06288 2.5554291,2.4424821 51.997016 0 1 -0.019401,-0.06333 2.5554291,2.4424821 51.997016 0 1 -0.017295,-0.06364 2.5554291,2.4424821 51.997016 0 1 -0.016243,-0.0638 2.5554291,2.4424821 51.997016 0 1 -0.014032,-0.06455 2.5554291,2.4424821 51.997016 0 1 -0.01298,-0.06471 2.5554291,2.4424821 51.997016 0 1 -0.010879,-0.06502 2.5554291,2.4424821 51.997016 0 1 -0.00935,-0.06505 2.5554291,2.4424821 51.997016 0 1 -0.00783,-0.06506 2.5554291,2.4424821 51.997016 0 1 -0.0062,-0.06552 2.5554291,2.4424821 51.997016 0 1 -0.0042,-0.06539 2.5554291,2.4424821 51.997016 0 1 -0.00267,-0.06542 2.5554291,2.4424821 51.997016 0 1 -6.758e-4,-0.0653 2.5554291,2.4424821 51.997016 0 1 3.736e-4,-0.06545 2.5554291,2.4424821 51.997016 0 1 0.00237,-0.06534 2.5554291,2.4424821 51.997016 0 1 0.00437,-0.06523 2.5554291,2.4424821 51.997016 0 1 0.00579,-0.06481 2.5554291,2.4424821 51.997016 0 1 0.00721,-0.06439 2.5554291,2.4424821 51.997016 0 1 0.0092,-0.06427 2.5554291,2.4424821 51.997016 0 1 0.010728,-0.06428 2.5554291,2.4424821 51.997016 0 1 0.012509,-0.06329 2.5554291,2.4424821 51.997016 0 1 0.014036,-0.06332 2.5554291,2.4424821 51.997016 0 1 0.0049,-0.01996 2.5554291,2.4424821 51.997016 0 1 0.016395,-0.06263 2.5554291,2.4424821 51.997016 0 1 0.017814,-0.06221 2.5554291,2.4424821 51.997016 0 1 0.019134,-0.06137 2.5554291,2.4424821 51.997016 0 1 0.021493,-0.06068 2.5554291,2.4424821 51.997016 0 1 0.022432,-0.0604 2.5554291,2.4424821 51.997016 0 1 0.024225,-0.05942 2.5554291,2.4424821 51.997016 0 1 0.026117,-0.05886 2.5554291,2.4424821 51.997016 0 1 0.026951,-0.05815 2.5554291,2.4424821 51.997016 0 1 0.02921,-0.05702 2.5554291,2.4424821 51.997016 0 1 0.030153,-0.05675 2.5554291,2.4424821 51.997016 0 1 0.031833,-0.05533 2.5554291,2.4424821 51.997016 0 1 0.033251,-0.05492 2.5554291,2.4424821 51.997016 0 1 0.034929,-0.0535 2.5554291,2.4424821 51.997016 0 1 0.036238,-0.05264 2.5554291,2.4424821 51.997016 0 1 0.037445,-0.05137 2.5554291,2.4424821 51.997016 0 1 0.038759,-0.05052 2.5554291,2.4424821 51.997016 0 1 0.040067,-0.04966 2.5554291,2.4424821 51.997016 0 1 0.041745,-0.04825 2.5554291,2.4424821 51.997016 0 1 0.042478,-0.0471 2.5554291,2.4424821 51.997016 0 1 0.044262,-0.04613 2.5554291,2.4424821 51.997016 0 1 0.04547,-0.04484 2.5554291,2.4424821 51.997016 0 1 0.046095,-0.04326 2.5554291,2.4424821 51.997016 0 1 0.047877,-0.04227 2.5554291,2.4424821 51.997016 0 1 0.048501,-0.0407 2.5554291,2.4424821 51.997016 0 1 0.050289,-0.03971 2.5554291,2.4424821 51.997016 0 1 0.050911,-0.03813 2.5554291,2.4424821 51.997016 0 1 0.051538,-0.03655 2.5554291,2.4424821 51.997016 0 1 0.053324,-0.03557 A 2.5554291,2.4424821 51.997016 0 1 9.455883,10.02924 2.5554291,2.4424821 51.997016 0 1 9.510929,9.996967 2.5554291,2.4424821 51.997016 0 1 9.566706,9.965838 2.5554291,2.4424821 51.997016 0 1 9.623112,9.936287 2.5554291,2.4424821 51.997016 0 1 9.680613,9.908451 2.5554291,2.4424821 51.997016 0 1 9.738269,9.882056 2.5554291,2.4424821 51.997016 0 1 9.797493,9.857514 2.5554291,2.4424821 51.997016 0 1 9.856874,9.834412 2.5554291,2.4424821 51.997016 0 1 9.916876,9.812888 a 2.5554291,2.4424821 51.997016 0 1 0.06063,-0.019946 2.5554291,2.4424821 51.997016 0 1 0.061258,-0.018368 2.5554291,2.4424821 51.997016 0 1 0.06188,-0.01679 2.5554291,2.4424821 51.997016 0 1 0.06241,-0.014778 2.5554291,2.4424821 51.997016 0 1 0.06255,-0.013339 2.5554291,2.4424821 51.997016 0 1 0.06318,-0.011761 2.5554291,2.4424821 51.997016 0 1 0.0638,-0.010183 2.5554291,2.4424821 51.997016 0 1 0.06338,-0.00845 2.5554291,2.4424821 51.997016 0 1 0.06437,-0.0063 2.5554291,2.4424821 51.997016 0 1 0.06405,-0.00499 2.5554291,2.4424821 51.997016 0 1 0.06467,-0.00342 2.5554291,2.4424821 51.997016 0 1 0.06461,-0.00111 2.5554291,2.4424821 51.997016 0 1 0.06441,-2.434e-4 2.5554291,2.4424821 51.997016 0 1 0.05578,0.00188 z" />
    <path
       id="path852-3"
       style="fill:#88b2ad;fill-opacity:1;stroke-width:0.804118"
       d="m 27.896491,9.3501931 c 0.04905,-0.111052 -0.0069,-0.184614 0.01966,-0.295828 0.343551,-1.4509438 -0.568034,-2.746889 -1.946915,-3.0588618 -0.884763,-0.2002132 -1.918117,0.042799 -2.660483,0.7858762 0.01576,-0.00722 0.03158,-0.014327 0.04744,-0.021321 0.02749,-0.012026 0.05511,-0.023729 0.08284,-0.035122 0.0277,-0.011357 0.05552,-0.022399 0.08344,-0.033114 0.02798,-0.010898 0.05606,-0.021463 0.08426,-0.031702 0.02819,-0.010226 0.05648,-0.020124 0.08487,-0.029686 0.02835,-0.00936 0.05678,-0.018391 0.08531,-0.027082 0.02842,-0.00892 0.05694,-0.017499 0.08552,-0.025752 0.02878,-0.00803 0.05763,-0.015696 0.08654,-0.023038 0.02886,-0.00759 0.05778,-0.014837 0.08677,-0.021737 0.02901,-0.00672 0.05809,-0.013086 0.0872,-0.019112 0.02903,-0.00605 0.05812,-0.011759 0.08725,-0.017124 0.02906,-0.00542 0.05814,-0.010501 0.08727,-0.015235 0.02928,-0.00477 0.05859,-0.0092 0.08791,-0.013271 0.02924,-0.00393 0.05849,-0.00751 0.08774,-0.010737 0.02927,-0.0033 0.05853,-0.00626 0.08779,-0.00886 0.02923,-0.00246 0.05845,-0.00456 0.08765,-0.0063 0.0293,-0.00202 0.05858,-0.00368 0.08785,-0.00499 0.02927,-0.00117 0.05852,-0.00198 0.08774,-0.00244 0.02924,-3.307e-4 0.05843,-2.988e-4 0.08759,8.51e-5 0.02906,2.757e-4 0.05808,9.015e-4 0.08704,0.00189 0.02888,8.759e-4 0.05771,0.0021 0.08648,0.00368 0.02886,0.00171 0.05763,0.00378 0.08635,0.0062 0.02887,0.00235 0.05767,0.00506 0.08638,0.00812 0.02844,0.00314 0.05679,0.00662 0.08504,0.010454 0.02847,0.00377 0.05684,0.0079 0.08511,0.012374 0.0089,0.00148 0.01787,0.00299 0.02679,0.00455 0.02817,0.00478 0.05624,0.00991 0.08419,0.015387 0.028,0.00539 0.05588,0.011122 0.08365,0.017204 0.02763,0.00597 0.05515,0.01228 0.08252,0.018935 0.02734,0.00698 0.05454,0.014304 0.0816,0.021966 0.02723,0.00738 0.0543,0.015111 0.08124,0.023177 0.02679,0.00818 0.05343,0.016693 0.07991,0.025545 0.02657,0.00898 0.05297,0.018295 0.0792,0.027949 0.02625,0.00936 0.05233,0.019055 0.07824,0.029078 0.02577,0.010337 0.05136,0.020999 0.07675,0.031992 0.02567,0.010721 0.05114,0.02177 0.07643,0.033143 0.02504,0.011485 0.04986,0.023294 0.07451,0.035415 0.02488,0.012075 0.04954,0.024478 0.07399,0.037194 0.02425,0.012843 0.04826,0.026002 0.07208,0.039466 0.02386,0.013434 0.04749,0.027183 0.0709,0.041233 0.02332,0.01395 0.04641,0.028204 0.06926,0.042754 0.02294,0.014545 0.04564,0.029388 0.0681,0.04453 0.02256,0.015135 0.04488,0.030562 0.06695,0.046283 0.02195,0.015871 0.04365,0.032033 0.06508,0.048484 0.02144,0.016215 0.04261,0.032729 0.06353,0.049506 0.02102,0.016996 0.04177,0.03427 0.06225,0.051825 0.02045,0.017543 0.04063,0.035368 0.06052,0.053463 0.01975,0.017862 0.03922,0.035976 0.05842,0.054359 0.01932,0.018636 0.03835,0.037537 0.05709,0.056692 0.01863,0.018953 0.03696,0.03816 0.05498,0.05762 0.01821,0.01972 0.03608,0.039715 0.05366,0.059943 0.01751,0.02004 0.03469,0.040326 0.05157,0.060851 0.01678,0.02037 0.03326,0.04095 0.04943,0.06177 0.01641,0.02112 0.03242,0.0425 0.04814,0.06408 0.0155,0.02123 0.03073,0.04265 0.04561,0.06431 0.01492,0.02197 0.0295,0.04415 0.04376,0.06654 0.0144,0.02231 0.02847,0.04483 0.04214,0.06757 0.01367,0.02264 0.02708,0.04546 0.04013,0.06846 0.01299,0.02312 0.02554,0.04649 0.03787,0.06998 0.0123,0.02326 0.02424,0.04671 0.03581,0.07033 0.01149,0.02397 0.02262,0.04811 0.03338,0.07242 0.0108,0.02411 0.02132,0.048342 0.03148,0.07275 0.01016,0.0244 0.01994,0.04894 0.02936,0.07366 0.0094,0.02471 0.01852,0.04958 0.02722,0.07459 0.0087,0.02504 0.0172,0.05017 0.02514,0.0755 0.0081,0.02533 0.01573,0.05082 0.02303,0.07642 0.0071,0.02566 0.01382,0.05142 0.02026,0.07729 0.0065,0.02574 0.01261,0.05159 0.01833,0.07756 0.0058,0.02607 0.01114,0.05225 0.0162,0.07851 0.005,0.02639 0.0098,0.05285 0.01413,0.0794 0.0043,0.02624 0.0083,0.05259 0.01181,0.079 0.0034,0.02675 0.0063,0.05355 0.0089,0.08044 0.0028,0.02664 0.0052,0.05335 0.0072,0.08013 0.002,0.02697 0.0038,0.05398 0.005,0.08106 10e-4,0.02704 0.0017,0.05407 0.002,0.08118 6.57e-4,0.02695 9.04e-4,0.05394 7.99e-4,0.08099 -4.17e-4,0.02341 -0.0011,0.04685 -0.0021,0.07031 z"
       sodipodi:nodetypes="cccccccccccccccccccccccccccccccccccccccccccccccccccccccccccccccccccccccscccccccccc" />
    <path
       id="path852-9"
       style="fill:#88b2ad;fill-opacity:1;stroke-width:0.838491"
       d="m 30.801019,17.240116 c 0.06413,-0.124877 0.123976,-0.256499 0.179167,-0.394068 0.718229,-1.796073 0.01826,-3.555024 -0.949534,-4.744622 -0.620976,-0.763358 -0.941823,-1.521292 -1.65379,-0.914715 0.01276,-0.0012 0.02553,-0.0022 0.03829,-0.0029 0.02209,-0.0012 0.04417,-0.002 0.06625,-0.0022 0.02205,-2.33e-4 0.04408,4.2e-5 0.06611,8.25e-4 0.02211,5.3e-4 0.0442,0.0016 0.06628,0.0031 0.02208,0.0016 0.04413,0.0037 0.06616,0.0062 0.02193,0.0029 0.04384,0.0062 0.06571,0.0101 0.02187,0.0035 0.04371,0.0075 0.06551,0.01212 0.02187,0.005 0.04369,0.01047 0.06546,0.01635 0.0218,0.0055 0.04355,0.01157 0.06524,0.01818 0.02167,0.0068 0.04328,0.01414 0.06482,0.02207 0.0215,0.0077 0.04294,0.01598 0.06431,0.02481 0.02134,0.0086 0.04261,0.01781 0.0638,0.02742 0.02131,0.0097 0.04254,0.01981 0.06369,0.03047 0.02105,0.01083 0.04201,0.02206 0.06288,0.03383 0.0209,0.01157 0.0417,0.0238 0.0624,0.03642 0.02064,0.01286 0.04117,0.0261 0.0616,0.03985 0.02057,0.01341 0.04103,0.02734 0.06138,0.04174 0.02031,0.01451 0.0405,0.02964 0.06058,0.04518 0.02006,0.01579 0.03999,0.03192 0.05979,0.04857 0.01977,0.01653 0.03941,0.03335 0.05892,0.05072 0.01948,0.01726 0.03884,0.0348 0.05805,0.05287 0.01923,0.01836 0.03831,0.03704 0.05725,0.05623 0.01906,0.01919 0.03797,0.03882 0.05673,0.05889 0.01856,0.02002 0.03696,0.04046 0.05521,0.06134 0.01841,0.0209 0.03665,0.04222 0.05473,0.06396 0.0057,0.007 0.01139,0.01396 0.01706,0.02103 0.01792,0.02213 0.03567,0.04468 0.05324,0.06766 0.01762,0.02288 0.03507,0.04617 0.05234,0.06988 0.01722,0.02345 0.03426,0.04733 0.05112,0.07158 0.01675,0.02468 0.0333,0.04975 0.04967,0.0752 0.01655,0.02516 0.03291,0.0507 0.04908,0.07663 0.01606,0.02599 0.03192,0.05234 0.04758,0.07906 0.01567,0.02698 0.03113,0.0543 0.04638,0.08202 0.01536,0.02731 0.03051,0.05496 0.04545,0.08299 0.01473,0.02843 0.02925,0.05719 0.04355,0.08629 0.01456,0.02887 0.02891,0.05809 0.04303,0.08763 0.01392,0.02957 0.02763,0.05946 0.0411,0.08969 0.01364,0.0303 0.02706,0.06095 0.04024,0.09189 0.01301,0.03098 0.02579,0.06227 0.03833,0.09388 0.0126,0.03157 0.02496,0.06345 0.03708,0.0956 0.01206,0.03201 0.02389,0.06429 0.03547,0.09687 0.01165,0.0326 0.02305,0.06549 0.03421,0.09864 0.01124,0.03318 0.02222,0.06663 0.03296,0.100343 0.01061,0.03386 0.02096,0.06797 0.03106,0.102326 0.01016,0.03405 0.02008,0.06835 0.02973,0.102896 0.0097,0.03489 0.01907,0.07002 0.02821,0.105375 0.0091,0.03531 0.01799,0.07087 0.02659,0.106623 0.0086,0.03537 0.01684,0.07096 0.02487,0.106734 0.0081,0.0362 0.01584,0.07259 0.02335,0.109176 0.0075,0.03623 0.01471,0.07265 0.02166,0.10925 0.007,0.03708 0.01366,0.07434 0.02007,0.111747 0.0064,0.03712 0.01258,0.07438 0.01845,0.111784 0.0059,0.03715 0.01143,0.07445 0.01673,0.111894 0.0053,0.038 0.01038,0.0761 0.01514,0.114355 0.0047,0.03765 0.0092,0.0754 0.01341,0.113272 0.0041,0.03831 0.008,0.07673 0.0115,0.115255 0.0037,0.03851 0.0071,0.07711 0.01017,0.115806 0.0031,0.03855 0.006,0.07719 0.0085,0.115897 0.0025,0.03884 0.0046,0.07774 0.0065,0.116706 0.002,0.03864 0.0037,0.07735 0.0051,0.116099 0.0012,0.03917 0.0022,0.07838 0.0028,0.117624 7.53e-4,0.03897 0.0012,0.07796 0.0014,0.116981 1.86e-4,0.03901 8.6e-5,0.07803 -3.01e-4,0.117055 -3.8e-4,0.03904 -0.001,0.0781 -0.002,0.117146 -9.46e-4,0.0391 -0.0022,0.0782 -0.0037,0.117257 -0.0015,0.03913 -0.0033,0.07825 -0.0054,0.11733 -0.0022,0.03904 -0.0047,0.07803 -0.0075,0.116981 -0.0027,0.03882 -0.0057,0.07761 -0.0089,0.11632 -0.0032,0.03888 -0.0068,0.07768 -0.01057,0.116412 -0.0038,0.03891 -0.0079,0.07775 -0.01225,0.116504 -0.0043,0.03831 -0.0089,0.07652 -0.01379,0.114648 -0.0051,0.03846 -0.01045,0.07682 -0.0161,0.115053 -0.0055,0.038 -0.01119,0.0759 -0.0172,0.113657 -0.006,0.03805 -0.01234,0.07597 -0.01892,0.113749 -0.0067,0.03754 -0.01377,0.07493 -0.02106,0.11217 -0.007,0.03726 -0.01426,0.07436 -0.0218,0.111307 -0.0068,0.03183 -0.01371,0.0635 -0.02087,0.09507 z"
       sodipodi:nodetypes="cccccscccccccccccccccccccccccccccccccccccccscccccscccccccccccccccscccccccscccccccc" />
    <path
       id="path902"
       style="fill:#88b2ad;fill-opacity:1;stroke-width:0.333191"
       d="m 6.9125045,14.940438 a 1.2697244,2.1888146 3.5973833 0 0 -1.4299242,1.113688 1.2697244,2.1888146 3.5973833 0 0 0.4026038,2.95613 1.2697244,2.1888146 3.5973833 0 0 0.1284878,0.104978 2.5970858,1.6596151 82.735844 0 1 -0.013342,-0.02314 2.5970858,1.6596151 82.735844 0 1 -0.023979,-0.04336 2.5970858,1.6596151 82.735844 0 1 -0.023614,-0.04376 2.5970858,1.6596151 82.735844 0 1 -0.023143,-0.0445 2.5970858,1.6596151 82.735844 0 1 -0.022343,-0.0449 2.5970858,1.6596151 82.735844 0 1 -0.021934,-0.04608 2.5970858,1.6596151 82.735844 0 1 -0.021246,-0.04619 2.5970858,1.6596151 82.735844 0 1 -0.020772,-0.04692 2.5970858,1.6596151 82.735844 0 1 -0.020236,-0.04718 2.5970858,1.6596151 82.735844 0 1 -0.019506,-0.04802 2.5970858,1.6596151 82.735844 0 1 -0.018864,-0.04858 2.5970858,1.6596151 82.735844 0 1 -0.01833,-0.04886 2.5970858,1.6596151 82.735844 0 1 -0.017696,-0.0494 2.5970858,1.6596151 82.735844 0 1 -0.017065,-0.04998 2.5970858,1.6596151 82.735844 0 1 -0.016368,-0.05009 2.5970858,1.6596151 82.735844 0 1 -0.015724,-0.05065 2.5970858,1.6596151 82.735844 0 1 -0.015205,-0.05093 2.5970858,1.6596151 82.735844 0 1 -0.014394,-0.05133 2.5970858,1.6596151 82.735844 0 1 -0.013766,-0.0519 2.5970858,1.6596151 82.735844 0 1 -0.013066,-0.052 2.5970858,1.6596151 82.735844 0 1 -0.012536,-0.05228 2.5970858,1.6596151 82.735844 0 1 -0.011737,-0.05268 2.5970858,1.6596151 82.735844 0 1 -0.011038,-0.05279 2.5970858,1.6596151 82.735844 0 1 -0.01034,-0.05291 2.5970858,1.6596151 82.735844 0 1 -0.00954,-0.0533 2.5970858,1.6596151 82.735844 0 1 -0.00901,-0.05358 2.5970858,1.6596151 82.735844 0 1 -0.00815,-0.05355 2.5970858,1.6596151 82.735844 0 1 -0.00755,-0.05337 2.5970858,1.6596151 82.735844 0 1 -0.00676,-0.05378 2.5970858,1.6596151 82.735844 0 1 -0.00605,-0.0539 2.5970858,1.6596151 82.735844 0 1 -0.00536,-0.054 2.5970858,1.6596151 82.735844 0 1 -0.00467,-0.05411 2.5970858,1.6596151 82.735844 0 1 -0.00391,-0.0538 2.5970858,1.6596151 82.735844 0 1 -0.00321,-0.0539 2.5970858,1.6596151 82.735844 0 1 -0.00252,-0.05399 2.5970858,1.6596151 82.735844 0 1 -0.00166,-0.05396 2.5970858,1.6596151 82.735844 0 1 -8.928e-4,-0.05363 2.5970858,1.6596151 82.735844 0 1 -2.949e-4,-0.05345 2.5970858,1.6596151 82.735844 0 1 4.031e-4,-0.05357 2.5970858,1.6596151 82.735844 0 1 0.00115,-0.05322 2.5970858,1.6596151 82.735844 0 1 0.00202,-0.05319 2.5970858,1.6596151 82.735844 0 1 0.0026,-0.05302 2.5970858,1.6596151 82.735844 0 1 0.00337,-0.05268 2.5970858,1.6596151 82.735844 0 1 0.00424,-0.05265 2.5970858,1.6596151 82.735844 0 1 0.00472,-0.05218 2.5970858,1.6596151 82.735844 0 1 0.00565,-0.05171 2.5970858,1.6596151 82.735844 0 1 0.00635,-0.05179 2.5970858,1.6596151 82.735844 0 1 0.00683,-0.05134 2.5970858,1.6596151 82.735844 0 1 0.00777,-0.05085 2.5970858,1.6596151 82.735844 0 1 0.00853,-0.05051 2.5970858,1.6596151 82.735844 0 1 0.00903,-0.05003 2.5970858,1.6596151 82.735844 0 1 0.00994,-0.04955 2.5970858,1.6596151 82.735844 0 1 0.010542,-0.04937 2.5970858,1.6596151 82.735844 0 1 0.01118,-0.04876 2.5970858,1.6596151 82.735844 0 1 0.011946,-0.04842 2.5970858,1.6596151 82.735844 0 1 0.012489,-0.04753 2.5970858,1.6596151 82.735844 0 1 0.013363,-0.04746 2.5970858,1.6596151 82.735844 0 1 0.013914,-0.04656 2.5970858,1.6596151 82.735844 0 1 0.014678,-0.04623 2.5970858,1.6596151 82.735844 0 1 0.015232,-0.04529 2.5970858,1.6596151 82.735844 0 1 0.0042,-0.01185 2.5970858,1.6596151 82.735844 0 1 0.016157,-0.04481 2.5970858,1.6596151 82.735844 0 1 0.01681,-0.04419 2.5970858,1.6596151 82.735844 0 1 0.01737,-0.04326 2.5970858,1.6596151 82.735844 0 1 0.018018,-0.04264 2.5970858,1.6596151 82.735844 0 1 0.018679,-0.04201 2.5970858,1.6596151 82.735844 0 1 0.019346,-0.04137 2.5970858,1.6596151 82.735844 0 1 0.019728,-0.04065 2.5970858,1.6596151 82.735844 0 1 0.020552,-0.03986 2.5970858,1.6596151 82.735844 0 1 0.021111,-0.03895 2.5970858,1.6596151 82.735844 0 1 0.021615,-0.03846 2.5970858,1.6596151 82.735844 0 1 0.022312,-0.03741 2.5970858,1.6596151 82.735844 0 1 0.022717,-0.03663 2.5970858,1.6596151 82.735844 0 1 0.023355,-0.03604 2.5970858,1.6596151 82.735844 0 1 0.02382,-0.03481 2.5970858,1.6596151 82.735844 0 1 0.024465,-0.0342 2.5970858,1.6596151 82.735844 0 1 0.024758,-0.03314 2.5970858,1.6596151 82.735844 0 1 0.025411,-0.03255 2.5970858,1.6596151 82.735844 0 1 0.025883,-0.03127 2.5970858,1.6596151 82.735844 0 1 0.02654,-0.03061 2.5970858,1.6596151 82.735844 0 1 0.026981,-0.02947 2.5970858,1.6596151 82.735844 0 1 0.02739,-0.02867 2.5970858,1.6596151 82.735844 0 1 0.027672,-0.02761 2.5970858,1.6596151 82.735844 0 1 0.028223,-0.02671 2.5970858,1.6596151 82.735844 0 1 0.028663,-0.02557 2.5970858,1.6596151 82.735844 0 1 0.029058,-0.02482 2.5970858,1.6596151 82.735844 0 1 0.029509,-0.0236 2.5970858,1.6596151 82.735844 0 1 0.029896,-0.02287 2.5970858,1.6596151 82.735844 0 1 0.030188,-0.02179 2.5970858,1.6596151 82.735844 0 1 0.030632,-0.02059 2.5970858,1.6596151 82.735844 0 1 0.030931,-0.0195 2.5970858,1.6596151 82.735844 0 1 0.031319,-0.01878 2.5970858,1.6596151 82.735844 0 1 0.031501,-0.01749 2.5970858,1.6596151 82.735844 0 1 0.032054,-0.01649 2.5970858,1.6596151 82.735844 0 1 0.032078,-0.0153 2.5970858,1.6596151 82.735844 0 1 0.032539,-0.01415 2.5970858,1.6596151 82.735844 0 1 0.032831,-0.013 2.5970858,1.6596151 82.735844 0 1 0.032943,-0.01218 2.5970858,1.6596151 82.735844 0 1 0.033235,-0.01119 2.5970858,1.6596151 82.735844 0 1 0.033438,-0.0097 2.5970858,1.6596151 82.735844 0 1 0.033727,-0.0087 2.5970858,1.6596151 82.735844 0 1 0.033993,-0.0077 2.5970858,1.6596151 82.735844 0 1 0.034019,-0.0066 2.5970858,1.6596151 82.735844 0 1 0.034157,-0.0056 2.5970858,1.6596151 82.735844 0 1 0.034327,-0.0043 2.5970858,1.6596151 82.735844 0 1 0.014524,-0.0014 z" />
  </g>
</svg>
